<svg width="95" height="72" fill="none" xmlns="http://www.w3.org/2000/svg">
  <path fill-rule="evenodd" clip-rule="evenodd" d="M45 7.5c-6.627 0-12 5.373-12 12 0 .334.014.665.04.992A10.5 10.5 0 0 0 27 30c0 5.799 4.701 10.5 10.5 10.5H60a9 9 0 0 0 4.412-16.846 7.5 7.5 0 0 0-8.265-8.606C54.379 10.626 50.056 7.5 45 7.5Zm4.5 12a1.5 1.5 0 0 0-3 0v9.879l-3.44-3.44a1.5 1.5 0 0 0-2.12 2.122l6 6a1.5 1.5 0 0 0 2.12 0l6-6a1.5 1.5 0 0 0-2.12-2.122l-3.44 3.44V19.5Z" fill="#0F172A"/>
  <path d="M4.9 68.168c-.737 0-1.386-.154-1.946-.462a3.317 3.317 0 0 1-1.302-1.26c-.308-.541-.462-1.157-.462-1.848V57.57h1.12v7.028c0 .504.107.947.322 1.33.224.373.527.667.91.882.392.205.845.308 1.358.308.513 0 .961-.103 1.344-.308a2.3 2.3 0 0 0 .91-.882c.224-.383.336-.826.336-1.33V57.57h1.12v7.028c0 .69-.154 1.307-.462 1.848a3.317 3.317 0 0 1-1.302 1.26c-.55.308-1.2.462-1.946.462Zm5.98 2.632V60.496h1.05v1.68l-.167-.294a3.303 3.303 0 0 1 1.19-1.134c.504-.28 1.078-.42 1.722-.42.71 0 1.34.173 1.89.518.56.336.998.798 1.316 1.386.326.588.49 1.26.49 2.016 0 .747-.164 1.419-.49 2.016a3.651 3.651 0 0 1-1.316 1.4c-.55.336-1.18.504-1.89.504a3.552 3.552 0 0 1-1.75-.434 2.866 2.866 0 0 1-1.162-1.26l.168-.154v4.48h-1.05Zm3.739-3.682a2.43 2.43 0 0 0 1.344-.378c.401-.252.714-.593.938-1.022a3.08 3.08 0 0 0 .35-1.47c0-.55-.117-1.04-.35-1.47a2.607 2.607 0 0 0-.938-1.022 2.43 2.43 0 0 0-1.344-.378c-.504 0-.962.126-1.372.378a2.794 2.794 0 0 0-.966 1.036 3 3 0 0 0-.35 1.456c0 .541.116 1.031.35 1.47.242.43.564.77.966 1.022.41.252.868.378 1.372.378Zm5.6.882V57.402h1.05V68h-1.05Zm6.713.168c-.71 0-1.354-.168-1.932-.504a3.908 3.908 0 0 1-1.386-1.4c-.336-.597-.504-1.274-.504-2.03 0-.747.168-1.414.504-2.002a3.723 3.723 0 0 1 1.358-1.386c.578-.345 1.232-.518 1.96-.518s1.377.168 1.946.504a3.588 3.588 0 0 1 1.358 1.386c.336.588.504 1.26.504 2.016 0 .765-.173 1.447-.518 2.044a3.795 3.795 0 0 1-1.386 1.386 3.676 3.676 0 0 1-1.904.504Zm0-1.05a2.5 2.5 0 0 0 1.358-.378 2.65 2.65 0 0 0 .966-1.036c.242-.439.364-.929.364-1.47 0-.541-.122-1.027-.364-1.456a2.676 2.676 0 0 0-.966-1.022 2.5 2.5 0 0 0-1.358-.378c-.504 0-.961.126-1.372.378a2.825 2.825 0 0 0-.966 1.022c-.243.43-.364.915-.364 1.456 0 .541.121 1.031.364 1.47.242.439.564.784.966 1.036.41.252.868.378 1.372.378Zm7.83 1.05c-.476 0-.901-.089-1.274-.266a2.258 2.258 0 0 1-.882-.756 1.902 1.902 0 0 1-.322-1.092c0-.392.084-.747.252-1.064.168-.327.429-.602.784-.826.354-.224.807-.383 1.358-.476l2.94-.49v.952l-2.688.448c-.542.093-.934.266-1.176.518-.234.252-.35.55-.35.896 0 .336.13.62.392.854.27.233.616.35 1.036.35.513 0 .961-.107 1.344-.322a2.428 2.428 0 0 0 1.218-2.142v-1.904a1.37 1.37 0 0 0-.49-1.092c-.327-.28-.752-.42-1.274-.42a2.1 2.1 0 0 0-1.204.35 2.067 2.067 0 0 0-.77.882l-.952-.518c.14-.317.359-.607.658-.868a3.577 3.577 0 0 1 1.05-.616 3.216 3.216 0 0 1 1.218-.238c.55 0 1.036.107 1.456.322.429.215.76.513.994.896.242.373.364.807.364 1.302V68h-1.05v-1.498l.154.154c-.131.28-.336.537-.616.77a3.34 3.34 0 0 1-.966.546 3.54 3.54 0 0 1-1.204.196Zm9.23 0c-.7 0-1.33-.168-1.89-.504a3.759 3.759 0 0 1-1.33-1.4c-.318-.597-.477-1.27-.477-2.016 0-.756.16-1.428.476-2.016a3.687 3.687 0 0 1 1.316-1.386c.56-.345 1.195-.518 1.904-.518.644 0 1.218.14 1.722.42.504.28.901.658 1.19 1.134l-.168.294v-4.774h1.05V68h-1.05v-1.68l.168.154a2.843 2.843 0 0 1-1.176 1.26 3.474 3.474 0 0 1-1.736.434Zm.055-1.05a2.5 2.5 0 0 0 1.358-.378c.411-.252.733-.593.966-1.022.243-.439.364-.929.364-1.47 0-.541-.12-1.027-.364-1.456a2.65 2.65 0 0 0-.966-1.036 2.5 2.5 0 0 0-1.358-.378c-.494 0-.942.126-1.344.378a2.713 2.713 0 0 0-.952 1.022c-.224.43-.336.92-.336 1.47 0 .541.112 1.031.336 1.47.234.43.546.77.938 1.022a2.5 2.5 0 0 0 1.358.378ZM52.32 70.8V60.496h1.05v1.68l-.168-.294a3.302 3.302 0 0 1 1.19-1.134c.504-.28 1.078-.42 1.722-.42.71 0 1.34.173 1.89.518.56.336.999.798 1.316 1.386.327.588.49 1.26.49 2.016 0 .747-.163 1.419-.49 2.016a3.651 3.651 0 0 1-1.316 1.4c-.55.336-1.18.504-1.89.504a3.552 3.552 0 0 1-1.75-.434 2.866 2.866 0 0 1-1.162-1.26l.168-.154v4.48h-1.05Zm3.738-3.682a2.43 2.43 0 0 0 1.344-.378c.401-.252.714-.593.938-1.022.233-.439.35-.929.35-1.47 0-.55-.116-1.04-.35-1.47a2.607 2.607 0 0 0-.938-1.022 2.43 2.43 0 0 0-1.344-.378c-.504 0-.961.126-1.372.378a2.794 2.794 0 0 0-.966 1.036 3 3 0 0 0-.35 1.456c0 .541.117 1.031.35 1.47.243.43.565.77.966 1.022.41.252.868.378 1.372.378Zm5.6.882V57.402h1.05v4.55l-.238-.056c.187-.485.49-.868.91-1.148.43-.28.924-.42 1.484-.42.532 0 1.008.121 1.428.364.43.243.765.579 1.008 1.008.252.42.378.896.378 1.428V68h-1.05v-4.466c0-.457-.084-.845-.252-1.162a1.757 1.757 0 0 0-.7-.728 1.864 1.864 0 0 0-.994-.266c-.373 0-.71.089-1.008.266a1.826 1.826 0 0 0-.714.742c-.168.317-.252.7-.252 1.148V68h-1.05Zm11.54.168c-.71 0-1.354-.168-1.932-.504a3.906 3.906 0 0 1-1.387-1.4c-.336-.597-.504-1.274-.504-2.03 0-.747.168-1.414.504-2.002a3.722 3.722 0 0 1 1.358-1.386c.58-.345 1.233-.518 1.96-.518.728 0 1.377.168 1.947.504a3.59 3.59 0 0 1 1.357 1.386c.337.588.504 1.26.504 2.016 0 .765-.172 1.447-.517 2.044a3.797 3.797 0 0 1-1.386 1.386 3.676 3.676 0 0 1-1.904.504Zm0-1.05a2.5 2.5 0 0 0 1.358-.378c.41-.252.732-.597.966-1.036.242-.439.363-.929.363-1.47 0-.541-.12-1.027-.364-1.456a2.678 2.678 0 0 0-.966-1.022 2.5 2.5 0 0 0-1.358-.378c-.504 0-.96.126-1.371.378a2.823 2.823 0 0 0-.966 1.022c-.243.43-.364.915-.364 1.456 0 .541.12 1.031.364 1.47.242.439.564.784.966 1.036.41.252.868.378 1.372.378Zm8.393.966c-.672 0-1.19-.196-1.554-.588-.364-.392-.546-.952-.546-1.68v-4.27h-1.386v-1.05h.35c.317 0 .569-.103.756-.308.186-.215.28-.48.28-.798v-.63h1.05v1.736h1.652v1.05H80.54v4.27c0 .252.037.476.112.672.074.187.2.336.378.448.186.112.434.168.742.168.074 0 .163-.005.266-.014l.266-.028V68a2.153 2.153 0 0 1-.378.056c-.14.019-.252.028-.336.028Zm5.798.084c-.71 0-1.353-.168-1.932-.504a3.906 3.906 0 0 1-1.386-1.4c-.336-.597-.504-1.274-.504-2.03 0-.747.168-1.414.504-2.002a3.722 3.722 0 0 1 1.358-1.386c.578-.345 1.232-.518 1.96-.518s1.377.168 1.946.504a3.59 3.59 0 0 1 1.358 1.386c.336.588.504 1.26.504 2.016 0 .765-.173 1.447-.518 2.044a3.797 3.797 0 0 1-1.386 1.386 3.676 3.676 0 0 1-1.904.504Zm0-1.05a2.5 2.5 0 0 0 1.358-.378c.41-.252.733-.597.966-1.036.243-.439.364-.929.364-1.47 0-.541-.121-1.027-.364-1.456a2.678 2.678 0 0 0-.966-1.022 2.5 2.5 0 0 0-1.358-.378c-.504 0-.962.126-1.372.378a2.823 2.823 0 0 0-.966 1.022c-.243.43-.364.915-.364 1.456 0 .541.121 1.031.364 1.47.242.439.564.784.966 1.036.41.252.868.378 1.372.378Z" fill="#6B7280"/>
</svg>
